<svg width="1342" height="300" viewBox="0 0 1342 300" fill="none" xmlns="http://www.w3.org/2000/svg">
<g clip-path="url(#clip0_189_210)">
<path d="M474.151 239.772C464.757 239.772 456.287 238.386 448.741 235.614C441.349 232.688 435.035 228.53 429.799 223.14C424.717 217.75 420.79 211.205 418.018 203.505C415.246 195.805 413.86 187.104 413.86 177.402C413.86 167.7 415.246 158.999 418.018 151.299C420.79 143.599 424.717 137.054 429.799 131.664C435.035 126.274 441.349 122.193 448.741 119.421C456.287 116.495 464.68 115.032 473.92 115.032C487.01 115.032 497.482 117.727 505.336 123.117C513.344 128.353 519.427 135.36 523.585 144.138L497.251 158.46C495.095 153.84 492.246 149.99 488.704 146.91C485.316 143.83 480.388 142.29 473.92 142.29C466.066 142.29 459.983 144.6 455.671 149.22C451.513 153.686 449.434 159.846 449.434 167.7V187.104C449.434 194.958 451.513 201.195 455.671 205.815C459.983 210.281 466.22 212.514 474.382 212.514C481.004 212.514 486.163 210.974 489.859 207.894C493.709 204.814 496.943 200.81 499.561 195.882L525.433 210.666C521.121 219.444 514.807 226.528 506.491 231.918C498.329 237.154 487.549 239.772 474.151 239.772ZM623.287 215.286H621.901C619.283 222.062 615.125 227.837 609.427 232.611C603.883 237.385 596.337 239.772 586.789 239.772C581.091 239.772 575.855 238.848 571.081 237C566.307 234.998 562.226 232.072 558.838 228.222C555.45 224.372 552.755 219.675 550.753 214.131C548.905 208.587 547.981 202.196 547.981 194.958V117.804H582.169V190.338C582.169 205.738 588.868 213.438 602.266 213.438C604.884 213.438 607.425 213.13 609.889 212.514C612.507 211.744 614.74 210.666 616.588 209.28C618.59 207.74 620.207 205.892 621.439 203.736C622.671 201.58 623.287 199.039 623.287 196.113V117.804H657.475V237H623.287V215.286ZM684.874 210.435H712.363V144.369H684.874V117.804H746.551V151.53H748.168C749.246 147.218 750.709 143.06 752.557 139.056C754.559 134.898 757.023 131.279 759.949 128.199C763.029 124.965 766.725 122.424 771.037 120.576C775.349 118.728 780.431 117.804 786.283 117.804H797.602V149.22H772.192C763.722 149.22 757.331 151.761 753.019 156.843C748.707 161.771 746.551 167.854 746.551 175.092V210.435H785.821V237H684.874V210.435ZM914.166 237C907.082 237 901.384 235.229 897.072 231.687C892.76 227.991 890.219 222.755 889.449 215.979H888.294C886.138 223.833 881.826 229.762 875.358 233.766C869.044 237.77 861.267 239.772 852.027 239.772C840.477 239.772 831.16 236.692 824.076 230.532C817.146 224.218 813.681 215.44 813.681 204.198C813.681 191.724 818.224 182.484 827.31 176.478C836.396 170.472 849.717 167.469 867.273 167.469H886.446V161.463C886.446 154.379 884.752 149.066 881.364 145.524C878.13 141.828 872.586 139.98 864.732 139.98C857.494 139.98 851.642 141.366 847.176 144.138C842.71 146.91 838.86 150.529 835.626 154.995L816.915 138.363C820.919 131.587 827.156 126.043 835.626 121.731C844.25 117.265 855.261 115.032 868.659 115.032C884.983 115.032 897.688 118.805 906.774 126.351C916.014 133.743 920.634 144.985 920.634 160.077V212.283H933.801V237H914.166ZM864.963 217.365C870.969 217.365 876.051 215.902 880.209 212.976C884.367 210.05 886.446 205.815 886.446 200.271V185.949H868.197C854.183 185.949 847.176 190.646 847.176 200.04V204.66C847.176 208.818 848.793 211.975 852.027 214.131C855.261 216.287 859.573 217.365 864.963 217.365ZM1014.1 237C1001.78 237 992.616 233.766 986.61 227.298C980.604 220.83 977.601 212.591 977.601 202.581V144.369H945.261V117.804H966.282C971.364 117.804 974.983 116.803 977.139 114.801C979.295 112.799 980.373 109.103 980.373 103.713V75.762H1011.79V117.804H1058.22V144.369H1011.79V210.435H1058.22V237H1014.1ZM1141.98 239.772C1121.96 239.772 1106.79 234.228 1096.48 223.14C1086.16 212.052 1081 196.96 1081 177.864C1081 168.162 1082.31 159.461 1084.93 151.761C1087.7 143.907 1091.55 137.285 1096.48 131.895C1101.56 126.351 1107.64 122.193 1114.72 119.421C1121.96 116.495 1130.05 115.032 1138.98 115.032C1147.91 115.032 1155.92 116.495 1163 119.421C1170.09 122.193 1176.09 126.197 1181.02 131.433C1185.95 136.669 1189.72 143.06 1192.34 150.606C1195.11 157.998 1196.5 166.314 1196.5 175.554V185.718H1114.96V187.797C1114.96 195.497 1117.34 201.734 1122.12 206.508C1126.89 211.128 1133.9 213.438 1143.14 213.438C1150.22 213.438 1156.3 212.129 1161.39 209.511C1166.47 206.739 1170.86 203.12 1174.55 198.654L1193.03 218.751C1188.41 224.449 1181.95 229.377 1173.63 233.535C1165.31 237.693 1154.76 239.772 1141.98 239.772ZM1139.21 139.518C1131.82 139.518 1125.89 141.828 1121.42 146.448C1117.11 150.914 1114.96 156.997 1114.96 164.697V166.545H1163V164.697C1163 156.843 1160.85 150.683 1156.54 146.217C1152.38 141.751 1146.6 139.518 1139.21 139.518ZM1272.64 239.772C1264.01 239.772 1257.78 237.924 1253.93 234.228C1250.23 230.378 1248.38 225.835 1248.38 220.599V212.514C1248.38 207.278 1250.23 202.812 1253.93 199.116C1257.78 195.266 1264.01 193.341 1272.64 193.341C1281.26 193.341 1287.42 195.266 1291.12 199.116C1294.97 202.812 1296.89 207.278 1296.89 212.514V220.599C1296.89 225.835 1294.97 230.378 1291.12 234.228C1287.42 237.924 1281.26 239.772 1272.64 239.772Z" fill="white"/>
<path d="M33.333 180C88.5615 180 133.333 224.772 133.333 280V300H100C44.7715 300 0 255.228 0 200V180H33.333ZM300 244.037C299.318 244.013 298.633 244 297.945 244C267.305 244 242.466 268.177 242.466 298C242.466 298.67 242.479 299.336 242.504 300H166.667V280C166.667 224.772 211.439 180 266.667 180H300V244.037ZM150 127.999C162.483 127.999 172.602 137.849 172.603 149.999C172.603 162.149 162.483 171.999 150 171.999C141.217 171.999 133.604 167.123 129.862 160H0V140H129.861C133.602 132.876 141.216 127.999 150 127.999ZM133.333 20C133.333 75.2285 88.5615 120 33.333 120H0V100C0 44.7715 44.7715 6.52856e-06 100 0H133.333V20ZM242.504 0C243.585 28.8969 267.993 52 297.945 52C298.633 52 299.318 51.9871 300 51.9629V120H266.667C211.439 120 166.667 75.2285 166.667 20V0H242.504Z" fill="white"/>
</g>
<defs>
<clipPath id="clip0_189_210">
<rect width="1342" height="300" fill="white"/>
</clipPath>
</defs>
</svg>
